<svg xmlns="http://www.w3.org/2000/svg" width="256" height="256"><path fill-opacity=".016" d="M0 128.004v128.004l128.25-.254 128.25-.254.254-127.75L257.008 0H0v128.004m.485.496c0 70.4.119 99.053.265 63.672.146-35.38.146-92.98 0-128C.604 29.153.485 58.1.485 128.5" fill="#1976D2" fill-rule="evenodd"/><path fill-opacity=".279" d="M36 128c0 18.333.07 19 2 19s2-.667 2-19-.07-19-2-19-2 .667-2 19m63 0c0 18.333.07 19 2 19s2-.667 2-19-.07-19-2-19-2 .667-2 19m60-.927c0 16.674.135 18.048 1.75 17.737 1.576-.302 1.777-2.102 2.023-18.073.265-17.228.215-17.737-1.75-17.737-1.956 0-2.023.598-2.023 18.073m53-.073c0 17.333.074 18 2 18s2-.667 2-18-.074-18-2-18-2 .667-2 18m-93-15.139c0 .509.675 1.184 1.5 1.501 1.219.467 1.5 2.838 1.5 12.638s-.281 12.171-1.5 12.638c-3.531 1.355-.974 2.362 6 2.362 7.106 0 9.864-1.148 5.5-2.29-1.703-.445-2-1.364-2-6.19 0-4.849.251-5.618 1.742-5.331.959.184 2.421 1.68 3.25 3.323l1.508 2.988.31-3.75c.171-2.062.154-5.437-.037-7.5-.347-3.733-.354-3.738-1.484-1.136-.951 2.187-3.079 3.886-4.871 3.886-.23 0-.418-2.489-.418-5.531 0-6.422.866-7.115 6.563-5.254 2.827.924 4.027 1.921 4.257 3.536.579 4.076 2.302 2.342 1.987-2.001l-.307-4.25-11.75-.282c-6.732-.161-11.75.113-11.75.643m63.57.025c-.301.488.347 1.121 1.441 1.407 1.848.483 1.989 1.384 1.989 12.707s-.141 12.224-1.989 12.707c-4 1.046-.712 2.293 6.048 2.293 6.493 0 8.887-1.039 5.441-2.362-1.219-.467-1.5-2.845-1.5-12.7 0-11.261.142-12.162 1.989-12.645 3.987-1.043.722-2.293-5.989-2.293-3.785 0-7.128.399-7.43.886M3.488 114.421c-3.383 3.383-3.362 8.409.048 11.612 1.394 1.311 4.651 3.527 7.237 4.925 4.888 2.642 6.248 5.107 4.187 7.59-2.95 3.555-10.352.663-12.28-4.798-1.19-3.373-2.68-1.705-2.678 3l.002 4.75 7.018.266c8.356.316 12.279-1.321 13.831-5.773 1.911-5.484-.5-8.834-9.665-13.427-4.665-2.338-5.274-2.991-5-5.364.261-2.259.862-2.755 3.671-3.024 3.516-.336 8.141 2.786 8.141 5.496 0 .729.45 1.326 1 1.326s1-1.912 1-4.25v-4.25l-7.012-.284c-6.335-.256-7.252-.043-9.5 2.205m56.753-.426c-9.659 5.889-9.659 20.121 0 26.01 4.62 2.817 12.423 2.69 16.861-.275 9.572-6.395 8.727-21.261-1.483-26.107-4.686-2.223-11.388-2.061-15.378.372m182.426-1.328c-.367.366-.667 2.14-.667 3.942 0 3.139-.177 3.289-4.25 3.584-3.481.251-4.25.669-4.25 2.307 0 1.634.768 2.056 4.195 2.305 4.156.302 4.198.344 4.5 4.5.249 3.427.671 4.195 2.305 4.195 1.634 0 2.056-.768 2.305-4.195.302-4.156.344-4.198 4.5-4.5 3.427-.249 4.195-.671 4.195-2.305 0-1.638-.769-2.056-4.25-2.307-4.229-.307-4.25-.327-4.25-4.25 0-3.157-.366-3.943-1.833-3.943-1.009 0-2.134.3-2.5.667m-179.28 3.865c-2.548 3.889-2.952 15.119-.7 19.468 1.613 3.115 2.254 3.5 5.813 3.5 3.559 0 4.2-.385 5.813-3.5 1.391-2.686 1.713-5.062 1.386-10.218C75.152 117.181 73.208 114 68.5 114c-2.592 0-3.868.632-5.113 2.532" fill="#1976D2" fill-rule="evenodd"/><path fill-opacity=".116" d="M37 128c0 12 .368 19 1 19s1-7 1-19-.368-19-1-19-1 7-1 19m63 0c0 12 .368 19 1 19s1-7 1-19-.368-19-1-19-1 7-1 19m59.227-1.332c.202 13.046.6 17.776 1.523 18.083.969.322 1.25-3.646 1.25-17.668 0-15.529-.215-18.083-1.523-18.083-1.317 0-1.486 2.391-1.25 17.668M213 127c0 11.333.37 18 1 18s1-6.667 1-18-.37-18-1-18-1 6.667-1 18M4.026 114.82c-5.478 5.478-3.51 10.393 6.106 15.247 5.614 2.834 5.969 3.222 5.678 6.21-.239 2.461-.951 3.411-3.128 4.172-3.728 1.303-7.608-.85-9.884-5.484L1.096 131.5l-.048 5.45c-.034 3.907.258 5.144 1.033 4.369.755-.755 2.081-.775 4.386-.068 7.168 2.2 14.533-1.953 14.533-8.195 0-3.828-1.811-5.818-8.555-9.399-4.257-2.261-6.038-3.812-6.272-5.462-.418-2.948 1.448-5.195 4.315-5.195 2.656 0 7.512 3.564 7.512 5.514 0 .752.45 1.646 1 1.986.602.372 1-.954 1-3.335 0-3.409-.31-3.965-2.25-4.036-1.238-.045-4.151-.364-6.474-.708-3.781-.56-4.542-.309-7.25 2.399M63 113.121c-13.076 5.198-12.377 23.989 1.041 28.009 5.668 1.699 10.734.33 15.16-4.095 3.56-3.561 3.799-4.179 3.799-9.841 0-5.105-.418-6.538-2.703-9.253-4.446-5.283-11.317-7.198-17.297-4.82m57-.392c2.627 1 2.969 2.541 2.985 13.45.012 8.389-.322 11.015-1.556 12.25-1.429 1.428-.952 1.565 5.25 1.508 5.104-.048 6.255-.291 4.571-.968-1.941-.781-2.25-1.64-2.25-6.27 0-2.951.251-5.617.558-5.924 1.18-1.179 4.573.593 5.936 3.1 1.347 2.479 1.424 2.237 1.387-4.375-.021-3.85-.287-6.325-.59-5.5-.978 2.66-3.551 5-5.496 5-1.675 0-1.86-.667-1.595-5.75.27-5.172.536-5.783 2.652-6.083 4.098-.58 7.149.787 9.175 4.11l1.966 3.223.003-4.25L143 112l-12.25.079c-6.737.043-11.575.336-10.75.65m64 0c2.624.999 2.969 2.541 2.969 13.271s-.345 12.272-2.969 13.271c-.825.314 1.65.593 5.5.62 5.216.036 6.554-.212 5.25-.971-1.503-.876-1.748-2.598-1.735-12.22.016-11.422.346-12.967 2.985-13.971.825-.314-1.875-.571-6-.571s-6.825.257-6 .571m59 3.771v4.5h-4.5c-3.333 0-4.5.389-4.5 1.5s1.167 1.5 4.5 1.5h4.5v4.5c0 3.254.4 4.5 1.443 4.5.982 0 1.54-1.356 1.75-4.25.306-4.229.328-4.251 4.557-4.557 2.806-.204 4.25-.778 4.25-1.693s-1.444-1.489-4.25-1.693c-4.229-.306-4.251-.328-4.557-4.557-.21-2.894-.768-4.25-1.75-4.25-1.043 0-1.443 1.246-1.443 4.5m-178.682-1.097c-2.547 2.191-2.826 3.107-3.156 10.358-.418 9.205 1.264 13.806 5.43 14.851 6.544 1.643 9.889-4.094 9.226-15.824-.349-6.188-.728-7.314-3.163-9.409-3.473-2.986-4.842-2.982-8.337.024" fill="#1976D2" fill-rule="evenodd"/><path fill-opacity=".494" d="M37 127.5c0 11.667.369 18.5 1 18.5s1-6.833 1-18.5-.369-18.5-1-18.5-1 6.833-1 18.5m63 0c0 11.667.369 18.5 1 18.5s1-6.833 1-18.5-.369-18.5-1-18.5-1 6.833-1 18.5m60-1c0 11 .371 17.5 1 17.5s1-6.5 1-17.5-.371-17.5-1-17.5-1 6.5-1 17.5m53 .559c0 11.785.347 17.844 1 17.441.605-.374 1-7.51 1-18.059 0-10.961-.372-17.441-1-17.441-.63 0-1 6.686-1 18.059m-90.167-2.512c.232 8.758-.032 12.988-.873 14.001-1.022 1.232-.541 1.452 3.168 1.452h4.372v-28l-3.5-.001-3.5-.002.333 12.55m14.667-11.392c1.1.601 2.563 1.799 3.25 2.66 1.078 1.352 1.25 1.198 1.25-1.124 0-2.376-.381-2.687-3.25-2.661-2.911.028-3.041.145-1.25 1.125m49.333 11.392c.232 8.758-.032 12.988-.873 14.001-1.022 1.232-.541 1.452 3.168 1.451l4.372-.001V111.999l-3.5-.001-3.5-.001.333 12.55m56.806-11.853c-.351.352-.639 2.364-.639 4.473V121h-4.5c-3.333 0-4.5.389-4.5 1.5 0 1.108 1.16 1.5 4.443 1.5h4.442l.308 4.172c.439 5.967 2.807 6.313 2.807.411V124h4.5c3.333 0 4.5-.389 4.5-1.5s-1.167-1.5-4.5-1.5H246v-3.941c0-3.798-1.028-5.698-2.361-4.365M4 115c-2.76 2.76-2.636 8.07.25 10.709 1.237 1.131 3.825 2.839 5.75 3.795 7.022 3.486 8.508 6.173 5.345 9.667-2.221 2.455-.273 2.343 2.388-.137 5.326-4.962 3.47-9.995-5.516-14.958-6.554-3.619-8.573-6.738-6.206-9.589 1.82-2.193.31-1.808-2.011.513m11.304-.5c.738.55 1.857 1.9 2.488 3 1.054 1.838 1.15 1.756 1.178-1 .025-2.547-.35-3-2.488-3-1.907 0-2.193.243-1.178 1m44.995.46c-8.677 5.29-8.315 19.878.607 24.491 4.21 2.178 4.464 1.969 1.874-1.538-1.916-2.595-2.28-4.337-2.28-10.917 0-6.582.363-8.321 2.28-10.913 2.639-3.569 2.002-3.858-2.481-1.123m13.91 1.669c3.081 5.223 3.041 17.189-.072 21.4-2.575 3.482-1.887 3.725 2.673.945 8.781-5.353 7.78-20.842-1.594-24.668l-3.132-1.277 2.125 3.6m59.186 7.739-2.106 1.172 2.356 1.777c2.347 1.77 2.355 1.766 2.355-1.27 0-1.676-.113-3.003-.25-2.949-.137.054-1.197.626-2.355 1.27M1.008 136.5c-.003 3.753.182 4.007 2.989 4.106 2.383.085 2.697-.119 1.541-1-.799-.608-2.143-2.456-2.989-4.106l-1.537-3-.004 4" fill="#1976D2" fill-rule="evenodd"/></svg>